<svg width="102" height="102" viewBox="0 0 102 102" fill="none" xmlns="http://www.w3.org/2000/svg">
<path d="M102 51C102 22.8777 79.1223 0 51 0C22.8777 0 0 22.8777 0 51V52.9252L34 82.6752V102H68V82.6752L102 52.9252V51ZM51 10.0427C54.6847 14.0462 61.2935 23.5238 63.2018 41.038C60.129 39.4443 56.1298 38.25 51 38.25C45.8702 38.25 41.871 39.4443 38.7982 41.038C40.7107 23.5068 47.3323 14.0292 51 10.0427ZM30.1155 52.6915L40.307 76.5H39.8438L9.92375 50.32C11.56 48.6625 14.416 46.75 19.125 46.75C27.2085 46.75 30.0008 52.496 30.1155 52.6915ZM49.555 76.5L38.845 51.5312C40.477 49.6868 44.115 46.75 51 46.75C57.9062 46.75 61.557 49.7038 63.155 51.5143L52.445 76.5H49.555ZM61.693 76.5L71.8845 52.6915C71.9355 52.6278 74.6045 46.75 82.875 46.75C87.5585 46.75 90.4102 48.6752 92.055 50.337L62.1562 76.5H61.693ZM92.055 40.1412C89.5815 39.015 86.5597 38.25 82.875 38.25C78.1575 38.25 74.5237 39.4953 71.7357 41.157C70.2737 26.3798 65.7432 16.252 61.5272 9.86C76.4022 13.6808 88.1365 25.3172 92.055 40.1412V40.1412ZM40.46 9.88125C36.2568 16.2562 31.7263 26.3798 30.2643 41.157C27.4763 39.4953 23.8425 38.25 19.125 38.25C15.4403 38.25 12.4185 39.015 9.945 40.1412C11.8887 32.8434 15.7395 26.1942 21.1022 20.8764C26.4648 15.5585 33.1461 11.7636 40.46 9.88125V9.88125ZM59.5 93.5H42.5V85H59.5V93.5Z" fill="white"/>
</svg>
