<svg width="93" height="106" viewBox="0 0 93 106" fill="none" xmlns="http://www.w3.org/2000/svg">
<path d="M43.4166 95.75V86.1196H48.6425V95.75H43.4166ZM51.8925 102.25H55.1425H86H89.25V99V98.8669V7.10352V3.85352H86H80.3242L74.6484 3.75053L74.6189 3.75H74.5894H18.4127H18.3832L18.3537 3.75053L12.6779 3.85351L7.00009 3.85352L3.7501 3.85352V7.10352V98.8681V98.8693L3.75 98.9976L3.74757 102.25H7H36.9166H40.1666H51.8925ZM21.9007 24.7227H25.0449V25.1348H21.9007V24.7227ZM40.3964 25.1348H37.2522V24.7227H40.3964V25.1348ZM55.7499 25.1348H52.6057V24.7227H55.7499V25.1348ZM71.1014 25.1348H67.9572V24.7227H71.1014V25.1348ZM21.9007 38.5468H25.0449V38.9589H21.9007V38.5468ZM40.3964 38.9589H37.2522V38.5468H40.3964V38.9589ZM55.7499 38.9589H52.6057V38.5468H55.7499V38.9589ZM71.1014 38.9589H67.9572V38.5468H71.1014V38.9589ZM67.9572 52.7854V52.3734H71.1014V52.7854H67.9572ZM52.6057 52.3734H55.7499V52.7854H52.6057V52.3734ZM37.2522 52.3734H40.3964V52.7854H37.2522V52.3734ZM21.9007 52.3734H25.0449V52.7854H21.9007V52.3734ZM21.9007 66.6095V66.1975H25.0449V66.6095H21.9007ZM40.3964 66.6095H37.2522V66.1975H40.3964V66.6095ZM55.7499 66.6095H52.6057V66.1975H55.7499V66.6095ZM71.1014 66.6095H67.9572V66.1975H71.1014V66.6095ZM67.9572 80.4336V80.0216H71.1014V80.4336H67.9572ZM21.9007 80.0216H25.0449V80.4336H21.9007V80.0216Z" stroke="white" stroke-width="6.5"/>
</svg>
