<svg width="97" height="102" viewBox="0 0 97 102" fill="none" xmlns="http://www.w3.org/2000/svg">
<path fill-rule="evenodd" clip-rule="evenodd" d="M85.5279 18.9128V0H11.4743V18.9128H5.22097V96.1819H0V102H97V96.1799H91.779V18.9128H85.5279ZM45.7438 82.7098V96.1799H38.2827V82.7098H45.7438ZM51.2606 82.7098H58.7195V96.1799H51.2606V82.7098ZM11.4743 24.733H85.5279V96.1819H64.2363V77.5771H32.7659V96.1819H11.4743V24.733ZM79.2768 18.9128H17.7254V5.82012H79.2768V18.9128ZM28.5531 36.8322V31.0121H17.9863V36.8322H28.5531ZM34.8065 31.0121V36.8322H45.3733V31.0121H34.8065ZM51.6289 31.0121V36.8322H62.1957V31.0121H51.6289ZM68.4491 31.0121V36.8322H79.0159V31.0121H68.4491ZM28.5531 48.4724V42.6523H17.9863V48.4724H28.5531ZM34.8065 42.6523V48.4724H45.3733V42.6523H34.8065ZM51.6289 42.6523V48.4724H62.1957V42.6523H51.6289ZM68.4491 42.6523V48.4724H79.0159V42.6523H68.4491ZM79.0159 54.2946H68.4491V60.1147H79.0159V54.2946ZM62.1957 60.1147V54.2946H51.6289V60.1147H62.1957ZM45.3733 60.1147V54.2946H34.8065V60.1147H45.3733ZM28.5531 60.1147V54.2946H17.9863V60.1147H28.5531ZM28.5531 65.9348H17.9863V71.755H28.5531V65.9348ZM34.8065 65.9348V71.755H45.3733V65.9348H34.8065ZM51.6289 65.9348V71.755H62.1957V65.9348H51.6289ZM68.4491 65.9348V71.755H79.0159V65.9348H68.4491ZM79.0159 77.5751H68.4491V83.3952H79.0159V77.5751ZM28.5531 83.3952V77.5751H17.9863V83.3952H28.5531Z" fill="white"/>
<path d="M25.8668 9L26.8347 11.7639H29.9669L27.4329 13.4721L28.4008 16.2361L25.8668 14.5279L23.3328 16.2361L24.3007 13.4721L21.7667 11.7639H24.8989L25.8668 9Z" fill="white"/>
<path d="M36.6446 9L37.6125 11.7639H40.7447L38.2107 13.4721L39.1786 16.2361L36.6446 14.5279L34.1106 16.2361L35.0785 13.4721L32.5445 11.7639H35.6767L36.6446 9Z" fill="white"/>
<path d="M47.9613 9L49.0502 11.7639H52.574L49.7232 13.4721L50.8121 16.2361L47.9613 14.5279L45.1106 16.2361L46.1995 13.4721L43.3487 11.7639H46.8724L47.9613 9Z" fill="white"/>
<path d="M59.2779 9L60.2458 11.7639H63.378L60.844 13.4721L61.8119 16.2361L59.2779 14.5279L56.7439 16.2361L57.7118 13.4721L55.1778 11.7639H58.31L59.2779 9Z" fill="white"/>
<path d="M70.0557 9L71.0236 11.7639H74.1558L71.6218 13.4721L72.5897 16.2361L70.0557 14.5279L67.5217 16.2361L68.4896 13.4721L65.9556 11.7639H69.0878L70.0557 9Z" fill="white"/>
</svg>
