<svg width="125" height="25" viewBox="0 0 125 25" fill="none" xmlns="http://www.w3.org/2000/svg">
<mask id="mask0" mask-type="alpha" maskUnits="userSpaceOnUse" x="-15" y="0" width="60" height="22">
<path fill-rule="evenodd" clip-rule="evenodd" d="M11.5468 4.29717L7.05537 0.000244141L-3.58057 10.1757L-14.2165 20.3511H-5.23732L3.15473 12.3241L11.5468 4.29717ZM12.5285 5.23634L-3.25622 20.3511H28.3273L12.5285 5.23634Z" fill="#716FFF"/>
<path fill-rule="evenodd" clip-rule="evenodd" d="M44.9672 20.3507L24.2229 0L19.7619 4.37647L36.4789 20.3507H44.9672ZM34.4959 20.3507L18.792 5.32792L3.4788 20.3507H34.4959Z" fill="#716FFF"/>
<path fill-rule="evenodd" clip-rule="evenodd" d="M15.6457 2.27808L-4.66396 21.7082H35.9404L15.6457 2.27808Z" fill="#716FFF"/>
</mask>
<g mask="url(#mask0)">
<path fill-rule="evenodd" clip-rule="evenodd" d="M29.6955 6.29905C29.6955 14.3394 23.2708 20.8573 15.3456 20.8573C7.42034 20.8573 0.995544 14.3394 0.995544 6.29905C0.995544 -1.7413 7.42034 -8.25928 15.3456 -8.25928C23.2708 -8.25928 29.6955 -1.7413 29.6955 6.29905ZM12.2701 8.87296H14.9503V11.5921H12.2701V8.87296ZM14.9503 12.3939H12.2701V15.1131H14.9503V12.3939ZM15.7406 8.87296H18.4208V11.5921H15.7406V8.87296ZM18.4208 12.3939H15.7406V15.1131H18.4208V12.3939Z" fill="#FF7E47"/>
</g>
<path d="M44.804 19.297C48.152 19.297 50.879 17.434 50.879 13.816V0.0999987H49.421V13.816C49.421 16.516 47.558 17.92 44.804 17.92C42.671 17.92 41.051 17.11 40.376 15.409L39.161 16.138C40.079 18.217 42.212 19.297 44.804 19.297ZM61.054 19.297C64.969 19.297 68.128 16.246 68.128 12.25C68.128 8.254 64.969 5.203 61.054 5.203C57.112 5.203 53.953 8.254 53.953 12.25C53.953 16.246 57.112 19.297 61.054 19.297ZM61.054 18.001C57.841 18.001 55.33 15.463 55.33 12.25C55.33 9.037 57.841 6.499 61.054 6.499C64.267 6.499 66.751 9.037 66.751 12.25C66.751 15.463 64.267 18.001 61.054 18.001ZM80.7315 5.5L76.0335 17.515L70.5795 5.5H69.1215L75.3315 19.243L75.0345 19.972C74.1975 21.943 72.8205 23.293 71.0115 23.131V24.4C73.3335 24.589 75.3315 22.834 76.3575 20.242L82.1895 5.5H80.7315ZM91.5252 6.823V5.5H87.5022V1.72L86.1252 2.125V5.5H83.1552V6.823H86.1252V15.598C86.1252 18.676 87.9882 19.54 91.5252 19V17.785C88.7712 18.028 87.5022 17.974 87.5022 15.598V6.823H91.5252ZM100.13 19.297C104.045 19.297 107.204 16.246 107.204 12.25C107.204 8.254 104.045 5.203 100.13 5.203C96.1882 5.203 93.0292 8.254 93.0292 12.25C93.0292 16.246 96.1882 19.297 100.13 19.297ZM100.13 18.001C96.9172 18.001 94.4062 15.463 94.4062 12.25C94.4062 9.037 96.9172 6.499 100.13 6.499C103.343 6.499 105.827 9.037 105.827 12.25C105.827 15.463 103.343 18.001 100.13 18.001ZM117.608 5.203C114.989 5.203 112.91 6.553 111.803 8.632V5.5H110.453V24.4H111.803V15.868C112.91 17.947 114.989 19.297 117.608 19.297C121.469 19.297 124.601 16.246 124.601 12.25C124.601 8.254 121.469 5.203 117.608 5.203ZM117.527 18.001C114.314 18.001 111.803 15.463 111.803 12.25C111.803 9.037 114.314 6.499 117.527 6.499C120.74 6.499 123.251 9.037 123.251 12.25C123.251 15.463 120.74 18.001 117.527 18.001Z" fill="black"/>
</svg>
