<svg width="150" height="102" viewBox="0 0 150 102" fill="none" xmlns="http://www.w3.org/2000/svg">
<path fill-rule="evenodd" clip-rule="evenodd" d="M38.6713 15.5249L30.0543 35.2803L8.72787 40.0085L8.34709 38.2905L38.6713 15.5249ZM48.9732 10.6377L65.2176 27.4848L39.1 33.2744L48.9732 10.6377ZM73.7926 25.581L58.8554 10.0921L97.2568 17.9594L97.7695 20.2651L73.7926 25.581ZM95.5238 81.8429L81.567 59.2212L74.3503 63.6766L88.2111 86.1423L77.8822 102H88.0072L95.6198 90.3189L132.168 90.3219L139.793 102H149.912L142.296 90.3189H148.515V81.8399L95.5238 81.8429ZM103.511 11.5972L46.8834 0L0 35.1993L3.04321 48.9282L50.7512 38.3504L64.9328 102H73.6187L59.0293 36.5185L106.692 25.9497L103.511 11.5972Z" fill="white"/>
</svg>
