<svg width="102" height="102" viewBox="0 0 102 102" fill="none" xmlns="http://www.w3.org/2000/svg">
<path d="M76.5 91.7895H25.5V96.8947C25.5 98.2487 24.9627 99.5473 24.0062 100.505C23.0498 101.462 21.7526 102 20.4 102H15.3C13.9474 102 12.6502 101.462 11.6938 100.505C10.7373 99.5473 10.2 98.2487 10.2 96.8947V91.7895H5.1V50.9474H0V30.5263H5.1V15.2105C5.1 12.5025 6.17464 9.90544 8.08751 7.99059C10.0004 6.07575 12.5948 5 15.3 5H86.7C89.4052 5 91.9996 6.07575 93.9125 7.99059C95.8254 9.90544 96.9 12.5025 96.9 15.2105V30.5263H102V50.9474H96.9V91.7895H91.8V96.8947C91.8 98.2487 91.2627 99.5473 90.3062 100.505C89.3498 101.462 88.0526 102 86.7 102H81.6C80.2474 102 78.9502 101.462 77.9938 100.505C77.0373 99.5473 76.5 98.2487 76.5 96.8947V91.7895ZM86.7 50.9474V15.2105H15.3V50.9474H86.7ZM86.7 61.1579H15.3V81.5789H86.7V61.1579ZM20.4 66.2632H40.8V76.4737H20.4V66.2632ZM61.2 66.2632H81.6V76.4737H61.2V66.2632Z" fill="white"/>
</svg>
