<svg width="102" height="102" viewBox="0 0 102 102" fill="none" xmlns="http://www.w3.org/2000/svg">
<mask id="path-1-inside-1" fill="white">
<path d="M15.3 45.9H0L51 0L102 45.9H86.7V70.992C81.345 70.125 76.143 67.932 71.4 64.617C68.187 66.861 64.77 68.493 61.2 69.615V56.1H40.8V69.615C37.23 68.493 33.813 66.861 30.6 64.617C25.857 67.932 20.655 70.125 15.3 70.992V45.9ZM97 81.6C89.911 81.6 77.622 79.203 71.4 74.817C58.956 83.538 43.044 83.538 30.6 74.817C24.378 79.203 17.289 81.6 10.2 81.6H0V102H102V81.6"/>
</mask>
<path d="M15.3 45.9H21.8V39.4H15.3V45.9ZM0 45.9L-4.34827 41.0686L-16.9387 52.4H0V45.9ZM51 0L55.3483 -4.83141L51 -8.74486L46.6517 -4.83141L51 0ZM102 45.9V52.4H118.939L106.348 41.0686L102 45.9ZM86.7 45.9V39.4H80.2V45.9H86.7ZM86.7 70.992L85.6611 77.4084L93.2 78.629V70.992H86.7ZM71.4 64.617L75.1237 59.2893L71.4014 56.6877L67.6782 59.288L71.4 64.617ZM61.2 69.615H54.7V78.4713L63.1489 75.8159L61.2 69.615ZM61.2 56.1H67.7V49.6H61.2V56.1ZM40.8 56.1V49.6H34.3V56.1H40.8ZM40.8 69.615L38.8511 75.8159L47.3 78.4713V69.615H40.8ZM30.6 64.617L34.3218 59.288L30.5986 56.6877L26.8763 59.2893L30.6 64.617ZM15.3 70.992H8.8V78.629L16.3389 77.4084L15.3 70.992ZM71.4 74.817L75.145 69.5043L71.4109 66.872L67.6696 69.494L71.4 74.817ZM30.6 74.817L34.3304 69.494L30.5891 66.872L26.855 69.5043L30.6 74.817ZM0 81.6V75.1H-6.5V81.6H0ZM0 102H-6.5V108.5H0V102ZM102 102V108.5H108.5V102H102ZM15.3 39.4H0V52.4H15.3V39.4ZM4.34827 50.7314L55.3483 4.83141L46.6517 -4.83141L-4.34827 41.0686L4.34827 50.7314ZM46.6517 4.83141L97.6517 50.7314L106.348 41.0686L55.3483 -4.83141L46.6517 4.83141ZM102 39.4H86.7V52.4H102V39.4ZM80.2 45.9V70.992H93.2V45.9H80.2ZM87.7388 64.5756C83.4401 63.8796 79.144 62.0992 75.1237 59.2893L67.6763 69.9447C73.142 73.7648 79.2499 76.3704 85.6611 77.4084L87.7388 64.5756ZM67.6782 59.288C65.0365 61.133 62.2229 62.48 59.2511 63.414L63.1489 75.8159C67.3171 74.5059 71.3375 72.589 75.1218 69.946L67.6782 59.288ZM67.7 69.615V56.1H54.7V69.615H67.7ZM61.2 49.6H40.8V62.6H61.2V49.6ZM34.3 56.1V69.615H47.3V56.1H34.3ZM42.7489 63.414C39.7771 62.48 36.9635 61.133 34.3218 59.288L26.8782 69.946C30.6625 72.589 34.6829 74.5059 38.8511 75.8159L42.7489 63.414ZM26.8763 59.2893C22.856 62.0992 18.5599 63.8796 14.2611 64.5756L16.3389 77.4084C22.7501 76.3704 28.858 73.7648 34.3237 69.9447L26.8763 59.2893ZM21.8 70.992V45.9H8.8V70.992H21.8ZM97 75.1C94.0625 75.1 89.7377 74.5857 85.4055 73.536C80.9699 72.4613 77.27 71.0022 75.145 69.5043L67.655 80.1297C71.752 83.0178 77.3076 84.9501 82.3443 86.1705C87.4843 87.4158 92.8485 88.1 97 88.1V75.1ZM67.6696 69.494C57.4649 76.6456 44.5351 76.6456 34.3304 69.494L26.8696 80.14C41.5529 90.4303 60.4471 90.4303 75.1304 80.14L67.6696 69.494ZM26.855 69.5043C21.6125 73.1998 15.8124 75.1 10.2 75.1V88.1C18.7656 88.1 27.1434 85.2062 34.345 80.1297L26.855 69.5043ZM10.2 75.1H0V88.1H10.2V75.1ZM-6.5 81.6V102H6.5V81.6H-6.5ZM0 108.5H102V95.5H0V108.5ZM108.5 102V81.6H95.5V102H108.5Z" fill="white" mask="url(#path-1-inside-1)"/>
</svg>
